<svg width="38" height="38" viewBox="0 0 38 38" fill="none" xmlns="http://www.w3.org/2000/svg">
<path d="M17.2991 21C22.4569 21 26.4575 15.3558 26.4575 10.5V8.88461C26.4575 3.98596 22.3487 0 17.2991 0C12.2495 0 8.14076 3.98596 8.14076 8.88461V10.5C8.14076 15.3558 12.1413 21 17.2991 21Z" fill="#FF8D00"/>
<path opacity="0.5" d="M37.651 28.736L37.1709 23L35.4151 24.9838C34.2313 23.9353 32.7346 23.3553 31.1365 23.3553C27.5607 23.3553 24.6346 26.2995 24.4223 30H26.0078C26.2241 27.2597 28.4822 25.0196 31.1365 25.0196C32.3258 25.0196 33.4398 25.4448 34.332 26.2087L32.3535 28.4439L37.651 28.736Z" fill="#FF8D00"/>
<path opacity="0.5" d="M36.0664 31C35.8501 33.7403 33.5919 35.9804 30.9376 35.9804C29.7483 35.9804 28.6343 35.5552 27.7422 34.7913L29.7206 32.5561L24.4223 32.264L24.9025 38L26.6583 36.0162C27.842 37.0647 29.3387 37.6447 30.9368 37.6447C34.5126 37.6447 37.4387 34.7005 37.651 31H36.0664Z" fill="#FF8D00"/>
<path d="M22.4323 31.2C22.4323 28.6152 23.5971 26.2984 25.4399 24.688C23.1485 24.2936 20.4549 24 17.4473 24C12.0029 24 7.53974 24.9504 4.75398 25.748C1.9109 26.5624 0 29.0288 0 31.8848V35.2C0 35.6416 0.371379 36 0.830826 36H22.4323V31.2Z" fill="#FF8D00"/>
</svg>
