<svg width="34" height="34" viewBox="0 0 34 34" fill="none" xmlns="http://www.w3.org/2000/svg">
<path opacity="0.4" d="M19.955 19H14.4501C14.0703 19 13.762 19.336 13.762 19.75V33.25C13.762 33.664 14.0703 34 14.4501 34H19.955C20.3348 34 20.6431 33.664 20.6431 33.25V19.75C20.6431 19.336 20.3348 19 19.955 19Z" fill="#FF8D00"/>
<path opacity="0.3" d="M6.19292 27H0.688102C0.30827 27 0 27.3136 0 27.7V33.3C0 33.6864 0.30827 34 0.688102 34H6.19292C6.57275 34 6.88102 33.6864 6.88102 33.3V27.7C6.88102 27.3136 6.57275 27 6.19292 27Z" fill="#FF8D00"/>
<path opacity="0.7" d="M32.734 12H27.2292C26.8493 12 26.5411 12.3285 26.5411 12.7333V33.2667C26.5411 33.6715 26.8493 34 27.2292 34H32.734C33.1138 34 33.4221 33.6715 33.4221 33.2667V12.7333C33.4221 12.3285 33.1138 12 32.734 12Z" fill="#FF8D00"/>
<path d="M17.1033 11.5317L26.0659 2.50647V7.34173C26.0659 7.74699 26.3925 8.0759 26.795 8.0759C27.1974 8.0759 27.5241 7.74699 27.5241 7.34173V0.734173C27.5241 0.328909 27.1974 0 26.795 0H20.2333C19.8308 0 19.5042 0.328909 19.5042 0.734173C19.5042 1.13944 19.8308 1.46835 20.2333 1.46835H25.035L16.5879 9.97447L11.2707 4.62015C10.9856 4.33309 10.5249 4.33309 10.2398 4.62015L2.94901 11.9619L3.97992 13L10.7553 6.17733L16.0724 11.5317C16.3575 11.8187 16.8183 11.8187 17.1033 11.5317Z" fill="#FF8D00"/>
</svg>
