<svg width="94" height="132" viewBox="0 0 94 132" fill="none" xmlns="http://www.w3.org/2000/svg">
<path fill-rule="evenodd" clip-rule="evenodd" d="M36.5358 0.537776C39.6429 1.36984 42.5176 3.16678 44.8102 5.7104L46.935 8.06744L49.1133 5.70161C54.9403 -0.62739 64.0079 -1.82383 71.1198 2.79854C79.6873 8.36681 81.3831 20.6864 74.6448 28.4041C73.4546 29.7667 71.9867 29.947 70.908 28.8623C69.8772 27.8257 70.0474 26.7758 71.5775 24.7283C73.5455 22.0944 74.1716 19.9285 73.976 16.4351C73.7048 11.5967 71.3962 8.05444 67.1405 5.94793C65.0551 4.91558 64.4912 4.79295 61.823 4.79295C59.1617 4.79295 58.588 4.91664 56.5313 5.93493C47.7897 10.2625 46.8529 22.2416 54.8498 27.4392C57.097 28.8999 58.8252 29.4006 62.7933 29.7421C69.9384 30.3567 75.4656 34.5985 77.9688 41.3885C78.6684 43.286 78.7376 44.2375 78.8637 53.7222L79 64H69.2619C58.6407 64 56.9859 63.7843 53.666 61.968C51.5205 60.794 48.8341 58.4047 47.8383 56.7841L47.0933 55.5722L45.7823 57.2388C44.0225 59.4753 42.2356 61.0091 40.1516 62.0709C29.926 67.2815 17.8321 61.4694 15.4794 50.2137C14.3934 45.02 15.9557 39.2515 19.4768 35.4506C20.5524 34.2897 22.0353 34.18 23.0368 35.1871C24.0676 36.2236 23.8974 37.2736 22.3673 39.321C20.4018 41.9514 19.7738 44.1205 19.9653 47.6142C20.2802 53.3557 23.6919 57.4809 29.3254 58.9324C35.042 60.4051 40.9892 57.4145 43.5823 51.7633C44.3119 50.173 44.4971 49.2355 44.4967 47.1339C44.496 44.3408 44.0065 42.1134 43.1427 40.9739C42.6416 40.313 42.4421 40.4711 38.6942 44.4986C30.2332 53.5905 30.1696 53.6358 28.4036 51.8599C27.0625 50.5113 27.4989 49.6143 31.7102 45.0594C33.7624 42.8397 36.3562 40.0347 37.474 38.8259L39.5066 36.6284L37.6952 35.7054C36.3764 35.0332 34.9682 34.6895 32.5177 34.4415C28.2111 34.0057 26.8909 33.6463 23.9928 32.1217C21.2226 30.6641 18.4219 27.7976 17.0074 24.9711C15.334 21.6274 15.0129 19.0792 15.0059 9.09732L15 0.049362L24.8713 0.0535783C32.0974 0.0567407 35.223 0.186399 36.5358 0.537776ZM19.9555 12.5812C20.0621 20.2683 20.1027 20.6787 20.9231 22.3618C22.0276 24.6285 24.8405 27.4403 27.0331 28.4694C28.1656 29.0007 29.8859 29.3865 32.0383 29.591C37.2577 30.0879 39.3514 30.8419 42.8911 33.4998L44.7497 34.8954L44.6382 33.8462C44.5516 33.0338 42.6643 30.7836 36.2733 23.8727C31.7343 18.9647 27.9127 14.6066 27.7806 14.1884C27.5384 13.4214 28.058 12.0387 28.7673 11.5622C28.9788 11.4203 29.5759 11.3019 30.0948 11.2987C30.8929 11.2941 33.7054 14.1779 48.4396 30.1079C58.0104 40.4556 65.9853 49.298 66.1614 49.7576C66.3973 50.3739 66.3232 50.836 65.8791 51.5177C64.3409 53.8782 63.4887 53.3448 56.2234 45.4726C52.697 41.6514 49.6672 38.4668 49.491 38.3959C49.301 38.3189 49.2234 40.6099 49.301 44.0179C49.4222 49.3493 49.4991 49.9147 50.3545 51.7633C51.6439 54.5487 53.7925 56.7585 56.5299 58.1144L58.8354 59.2564L66.4679 59.3741L74.1007 59.4922L73.9892 51.4681C73.8792 43.5228 73.8687 43.4251 72.913 41.4679C71.7784 39.1453 69.0805 36.477 66.8742 35.4952C66.0136 35.1126 63.8566 34.6424 62.0812 34.4506C54.8858 33.6737 50.801 31.4987 47.7065 26.7969C45.7197 23.7782 45.0541 21.7328 44.6809 17.5009C44.1721 11.7341 41.9361 8.17461 37.4149 5.93493L35.1094 4.79295L27.4769 4.67524L19.8441 4.55718L19.9555 12.5812Z" fill="white"/>
<path fill-rule="evenodd" clip-rule="evenodd" d="M18.9354 88.3731L23.0037 88.667L22.8748 89.4007C22.804 89.8043 22.6722 91.2939 22.5817 92.7112C22.4913 94.1284 22.3441 95.2878 22.2544 95.2878C22.1647 95.2878 21.9473 94.7312 21.7715 94.051C21.101 91.4576 18.5458 89.9107 14.9538 89.9232C13.4006 89.9285 12.8827 90.0411 11.7003 90.6312C9.80691 91.576 8.89054 92.7498 8.76843 94.3866C8.60015 96.6449 9.12821 97.1468 16.9222 102.136C20.4494 104.394 22.6461 105.979 23.7547 107.064C28.2978 111.513 28.448 117.878 24.1188 122.497C22.5073 124.216 20.8503 125.237 18.2521 126.113C16.554 126.686 15.934 126.768 13.1745 126.782C10.7866 126.794 9.68577 126.694 8.59314 126.362C3.02598 124.674 0.00871677 120.953 1.24258e-05 115.764C-0.00168009 114.833 0.169748 113.484 0.380586 112.768C0.828618 111.247 2.32359 108.47 2.69449 108.47C2.83521 108.47 2.89034 108.605 2.81732 108.77C1.32718 112.124 1.32791 112.121 1.32743 114.702C1.32694 117.038 1.38255 117.335 2.10284 118.843C3.55429 121.88 6.47556 123.96 10.1299 124.558C14.4587 125.267 18.6604 123.447 20.1573 120.215C20.9272 118.553 20.8554 116.158 19.9852 114.462C18.939 112.425 17.7037 111.356 11.9656 107.518C9.03996 105.561 6.18929 103.492 5.631 102.92C3.70637 100.947 2.88454 98.2479 3.38141 95.5308C4.0028 92.135 6.14311 89.5967 9.22686 88.5992C10.3338 88.2411 12.897 87.9285 14.0208 88.0143C14.4862 88.0501 16.6979 88.2114 18.9354 88.3731ZM85.6738 88.3734L89.7474 88.6677L89.6139 89.521C89.5407 89.9903 89.4058 91.4797 89.3141 92.831C89.1391 95.4122 88.8874 95.9438 88.6103 94.3175C88 90.7376 82.7314 88.7749 78.5069 90.5535C76.3543 91.4598 75.0506 93.7289 75.5475 95.7041C75.8284 96.8213 77.7777 98.3766 83.4305 101.994C87.1499 104.375 89.3673 105.968 90.488 107.065C95.0312 111.512 95.1813 117.878 90.8521 122.497C89.244 124.212 87.5899 125.234 84.9854 126.119C83.2752 126.7 82.687 126.777 79.9079 126.786C75.6135 126.8 72.9785 125.973 70.32 123.775C67.3214 121.297 65.969 116.654 67.1139 112.768C67.5619 111.247 69.0569 108.47 69.4278 108.47C69.5685 108.47 69.6237 108.605 69.5507 108.77C68.0605 112.124 68.0612 112.121 68.0608 114.702C68.0603 117.038 68.1159 117.335 68.8362 118.843C71.7238 124.886 80.778 126.735 85.4414 122.234C87.5118 120.235 88.0382 117.033 86.7185 114.462C85.6699 112.421 84.4155 111.33 78.9407 107.7C76.1481 105.849 73.3373 103.836 72.6949 103.227C69.3471 100.053 69.055 95.1243 71.985 91.252C72.675 90.34 74.6473 89.0239 75.9602 88.5992C77.0671 88.2411 79.6303 87.9285 80.7541 88.0143C81.2196 88.0501 83.4333 88.2116 85.6738 88.3734ZM45.2114 88.8163C45.2114 88.9481 44.8576 89.0565 44.4256 89.057C43.3523 89.0582 42.2318 89.7878 41.7465 90.8016C41.3841 91.559 41.3428 93.0436 41.3428 105.338C41.3428 120.445 41.3246 120.252 42.8394 121.167C43.2795 121.433 43.9325 121.652 44.2904 121.652C44.6482 121.653 45.0083 121.761 45.0905 121.893C45.1889 122.05 42.7106 122.132 37.8368 122.132C32.9631 122.132 30.4848 122.05 30.5832 121.893C30.6654 121.761 31.0255 121.653 31.3833 121.652C31.7411 121.652 32.3942 121.433 32.8343 121.167C34.3491 120.252 34.3309 120.445 34.3309 105.338C34.3309 93.0436 34.2896 91.559 33.9271 90.8016C33.4419 89.7878 32.3214 89.0582 31.2481 89.057C30.8161 89.0565 30.4623 88.9481 30.4623 88.8163C30.4623 88.6617 33.0816 88.5766 37.8368 88.5766C42.5921 88.5766 45.2114 88.6617 45.2114 88.8163ZM63.829 88.783C63.829 88.8964 63.2738 89.0543 62.5954 89.1341C60.9159 89.3312 59.5443 90.1883 57.8305 92.1108C54.9124 95.3849 49.086 102.363 49.1426 102.516C49.1745 102.603 52.9244 107.256 57.4753 112.855C66.8685 124.413 68.7772 126.351 72.7343 128.345C73.9814 128.974 77.1196 129.802 78.254 129.802C79.3203 129.802 79.2766 130.163 78.1404 130.738C76.5726 131.531 74.2324 132.015 72.0432 132C67.721 131.97 63.8041 130.021 59.4771 125.747C57.0643 123.365 43.2771 106.836 43.2771 106.326C43.2771 106.197 45.8884 102.677 49.08 98.5036C55.5978 89.9814 55.6602 89.858 53.8553 89.0632L52.8277 88.6104L58.3283 88.5937C61.3536 88.5843 63.829 88.6694 63.829 88.783Z" fill="white"/>
</svg>
