<svg width="38" height="25" viewBox="0 0 38 25" fill="none" xmlns="http://www.w3.org/2000/svg">
<path d="M4.769 25H3.231L2.2 21H0V12.5845C0 11.5872 0.353167 10.7405 1.0595 10.0445C1.76617 9.34817 2.61817 9 3.6155 9H4V3.6155C4 2.61817 4.35317 1.76633 5.0595 1.06C5.76617 0.353334 6.61817 0 7.6155 0H30.3845C31.3818 0 32.2338 0.353334 32.9405 1.06C33.6468 1.76633 34 2.61817 34 3.6155V9H34.3845C35.3818 9 36.2338 9.35317 36.9405 10.0595C37.6468 10.7662 38 11.6182 38 12.6155V21H35.8L34.769 25H33.231L32.2 21H5.8L4.769 25ZM20.5 9H31V3.6155C31 3.43617 30.9423 3.28867 30.827 3.173C30.7117 3.05767 30.5642 3 30.3845 3H20.5V9ZM7 9H17.5V3H7.6155C7.43583 3 7.28833 3.05767 7.173 3.173C7.05767 3.28867 7 3.43617 7 3.6155V9Z" fill="white"/>
</svg>
