<svg width="37" height="32" viewBox="0 0 37 32" fill="none" xmlns="http://www.w3.org/2000/svg">
<path d="M27.2115 31.096L26.7655 28.442C26.2885 28.301 25.8397 28.1165 25.419 27.8885C24.9987 27.6602 24.5987 27.3742 24.219 27.0305L21.6845 27.9115L20.2615 25.492L22.331 23.8C22.1873 23.282 22.1155 22.7717 22.1155 22.269C22.1155 21.7667 22.1873 21.2565 22.331 20.7385L20.281 19.0075L21.704 16.5885L24.219 17.4885C24.5857 17.1449 24.9825 16.8622 25.4095 16.6405C25.8365 16.4185 26.2885 16.237 26.7655 16.096L27.2115 13.4425H30.0575L30.4845 16.096C30.9615 16.237 31.4135 16.4237 31.8405 16.656C32.2672 16.888 32.6638 17.186 33.0305 17.55L35.546 16.5885L36.969 19.069L34.919 20.8C35.0627 21.277 35.1345 21.777 35.1345 22.3C35.1345 22.823 35.0627 23.323 34.919 23.8L36.9885 25.492L35.5655 27.9115L33.0305 27.0305C32.6512 27.3742 32.2512 27.6602 31.8305 27.8885C31.4102 28.1165 30.9615 28.301 30.4845 28.442L30.0575 31.096H27.2115ZM0 29.6155V25.169C0 24.159 0.257667 23.2444 0.773 22.425C1.28833 21.6057 2.00767 20.9717 2.931 20.523C4.59233 19.695 6.38717 19.0034 8.3155 18.448C10.2435 17.893 12.4717 17.6155 15 17.6155H15.5845C15.7588 17.6155 15.9332 17.636 16.1075 17.677C15.3332 19.6154 15.007 21.6557 15.129 23.798C15.2507 25.9404 15.8615 27.8795 16.9615 29.6155H0ZM28.6155 26.077C29.6642 26.077 30.5608 25.7045 31.3055 24.9595C32.0505 24.2145 32.423 23.3177 32.423 22.269C32.423 21.2204 32.0505 20.3237 31.3055 19.579C30.5608 18.834 29.6642 18.4615 28.6155 18.4615C27.5668 18.4615 26.67 18.834 25.925 19.579C25.18 20.3237 24.8075 21.2204 24.8075 22.269C24.8075 23.3177 25.18 24.2145 25.925 24.9595C26.67 25.7045 27.5668 26.077 28.6155 26.077ZM15 14.3845C13.0693 14.3845 11.42 13.7005 10.052 12.3325C8.684 10.9649 8 9.31552 8 7.38452C8 5.45385 8.684 3.80452 10.052 2.43652C11.42 1.06852 13.0693 0.384521 15 0.384521C16.9307 0.384521 18.58 1.06852 19.948 2.43652C21.316 3.80452 22 5.45385 22 7.38452C22 9.31552 21.316 10.9649 19.948 12.3325C18.58 13.7005 16.9307 14.3845 15 14.3845Z" fill="white"/>
</svg>
