<svg width="30" height="38" viewBox="0 0 30 38" fill="none" xmlns="http://www.w3.org/2000/svg">
<path d="M7.1925 11H10.192V5.3845H7.1925V11ZM7.1925 28.1155H10.192V18.769H7.1925V28.1155ZM3.6155 38C2.62117 38 1.77 37.646 1.062 36.938C0.354 36.23 0 35.3788 0 34.3845V16.3845H30V34.3845C30 35.3818 29.646 36.2338 28.938 36.9405C28.23 37.6468 27.3788 38 26.3845 38H3.6155ZM0 13.3845V3.6155C0 2.62117 0.354 1.77 1.062 1.062C1.77 0.354 2.62117 0 3.6155 0H26.3845C27.3788 0 28.23 0.354 28.938 1.062C29.646 1.77 30 2.62117 30 3.6155V13.3845H0Z" fill="white"/>
</svg>
