<svg width="48" height="48" viewBox="0 0 48 48" fill="none" xmlns="http://www.w3.org/2000/svg">
<path fill-rule="evenodd" clip-rule="evenodd" d="M16.1518 0.403332C18.4821 1.02738 20.6382 2.37509 22.3576 4.2828L23.9513 6.05058L25.585 4.27621C29.9553 -0.470543 36.7559 -1.36787 42.0898 2.0989C48.5155 6.27511 49.7873 15.5148 44.7336 21.3031C43.841 22.325 42.74 22.4602 41.931 21.6467C41.1579 20.8693 41.2855 20.0819 42.4331 18.5463C43.9091 16.5708 44.3787 14.9464 44.232 12.3263C44.0286 8.6975 42.2971 6.04083 39.1054 4.46095C37.5414 3.68669 37.1184 3.59472 35.1172 3.59472C33.1213 3.59472 32.691 3.68748 31.1485 4.4512C24.5923 7.69687 23.8897 16.6812 29.8874 20.5794C31.5727 21.6749 32.8689 22.0504 35.845 22.3066C41.2038 22.7675 45.3492 25.9489 47.2266 31.0414C47.7513 32.4645 47.8032 33.1781 47.8978 40.2917L48 48H40.6964C32.7306 48 31.4894 47.8382 28.9995 46.476C27.3904 45.5955 25.3756 43.8035 24.6287 42.5881L24.07 41.6792L23.0867 42.9291C21.7669 44.6065 20.4267 45.7568 18.8637 46.5532C11.1945 50.4611 2.12407 46.102 0.359559 37.6603C-0.454951 33.765 0.716758 29.4386 3.35763 26.588C4.16427 25.7172 5.27649 25.635 6.02758 26.3903C6.80069 27.1677 6.67306 27.9552 5.52546 29.4908C4.05132 31.4636 3.58038 33.0904 3.724 35.7107C3.96012 40.0168 6.51896 43.1107 10.744 44.1993C15.0315 45.3038 19.4919 43.0609 21.4367 38.8225C21.9839 37.6297 22.1228 36.9266 22.1225 35.3504C22.122 33.2556 21.7549 31.5851 21.107 30.7304C20.7312 30.2347 20.5816 30.3533 17.7706 33.3739C11.4249 40.1928 11.3772 40.2268 10.0527 38.8949C9.04688 37.8835 9.3742 37.2107 12.5327 33.7945C14.0718 32.1298 16.0171 30.026 16.8555 29.1195L18.3799 27.4713L17.0214 26.779C16.0323 26.2749 14.9762 26.0171 13.1383 25.8311C9.9083 25.5043 8.9182 25.2347 6.7446 24.0912C4.66692 22.9981 2.56644 20.8482 1.50559 18.7284C0.250537 16.2206 0.0096961 14.3094 0.00445472 6.82299L0 0.0370215L7.40344 0.0401837C12.823 0.0425555 15.1672 0.139799 16.1518 0.403332ZM3.71666 9.43592C3.79659 15.2012 3.82699 15.509 4.44233 16.7714C5.27073 18.4714 7.38038 20.5802 9.02486 21.3521C9.87423 21.7505 11.1644 22.0399 12.7787 22.1933C16.6933 22.5659 18.2636 23.1315 20.9183 25.1248L22.3123 26.1716L22.2287 25.3847C22.1637 24.7754 20.7482 23.0877 15.955 17.9045C12.5507 14.2235 9.68449 10.9549 9.58543 10.6413C9.40381 10.066 9.79351 9.02903 10.3255 8.67167C10.4841 8.56521 10.9319 8.4764 11.3211 8.47402C11.9197 8.4706 14.0291 10.6334 25.0797 22.5809C32.2578 30.3417 38.239 36.9735 38.3711 37.3182C38.548 37.7805 38.4924 38.127 38.1593 38.6383C37.0057 40.4087 36.3665 40.0086 30.9176 34.1044C28.2728 31.2385 26.0004 28.8501 25.8683 28.7969C25.7257 28.7392 25.6675 30.4574 25.7257 33.0134C25.8167 37.012 25.8743 37.436 26.5159 38.8225C27.4829 40.9115 29.0944 42.5689 31.1474 43.5858L32.8765 44.4423L38.6009 44.5306L44.3255 44.6191L44.2419 38.6011C44.1594 32.6421 44.1515 32.5688 43.4348 31.101C42.5838 29.359 40.5604 27.3577 38.9057 26.6214C38.2602 26.3344 36.6425 25.9818 35.3109 25.8379C29.9144 25.2553 26.8508 23.624 24.5299 20.0977C23.0398 17.8337 22.5405 16.2996 22.2606 13.1256C21.8791 8.80054 20.2021 6.13096 16.8112 4.4512L15.0821 3.59472L9.35769 3.50643L3.63306 3.41788L3.71666 9.43592Z" fill="white"/>
</svg>
